# xmcd
#
# Track frame offsets: 
#        182
#        13227
#        38952
#        72472
#        95987
#        110177
#        138272
#        170972
#        189432
#        205692
#
# Disc length: 3141 seconds
#
# Revision: 3
# Processed by: cddbd v1.5.2PL0 Copyright (c) Steve Scherf et al.
# Submitted via: ExactAudioCopy v0.95a1
#
DISCID=9c0c430a
DTITLE=Roy Buchanan - Blues In E
DYEAR=2001
DGENRE=Blues
TTITLE0=Short Fuse
TTITLE1=Green Onions
TTITLE2=Strange Kind Of Feeling
TTITLE3=Pressure
TTITLE4=Peter Gun
TTITLE5=Chicago Smoke Shop
TTITLE6=Blues In E
TTITLE7=Hey Joe
TTITLE8=Foxy lady
TTITLE9=Fantasia
EXTD=
EXTT0=
EXTT1=
EXTT2=
EXTT3=
EXTT4=
EXTT5=
EXTT6=
EXTT7=
EXTT8=
EXTT9=
PLAYORDER=
